<svg width="226" height="84" viewBox="0 0 226 84" fill="none" xmlns="http://www.w3.org/2000/svg">
<path id="Union" fill-rule="evenodd" clip-rule="evenodd" d="M67.9954 63.4068V60.4068H64.9954H61.2374V59.1135H70.9716H73.9716V56.1135V41.7495V38.7231L70.9453 38.7496L61.2374 38.8345V4.83726V1.83726H58.2374L33.7743 1.83726H32.3833L31.4845 2.89899L0.710214 39.2545L0 40.0935V41.1927V56.1135V59.1135H3H29.7131V60.4068H25.6758H22.6758V63.4068V79.4968V82.4968H25.6758H64.9954H67.9954V79.4968V63.4068ZM58.2374 56.1135V59.1135V60.4068V63.4068H61.2374H61.9954H64.9954V66.4068V76.4968V79.4968H61.9954H28.6758H25.6758V76.4968V66.4068V63.4068H28.6758H29.7131H32.7131V60.4068V59.1135V56.1135H29.7131H6H3V53.1135V41.1927L33.7743 4.83726H55.2374H58.2374V7.83726V38.8607V41.8608L61.2374 41.8346L67.9716 41.7757L70.9716 41.7495V44.7496V53.1135V56.1135H67.9716H61.2374H58.2374ZM85.0631 72.3798L85.0682 72.3856C91.8432 80.2098 101.243 84 112.86 84C120.467 84 127.195 82.2973 132.922 78.7654C138.649 75.2333 142.977 70.1516 145.92 63.6442C148.857 57.1865 150.265 49.5596 150.265 40.8587C150.265 28.4092 147.097 18.2998 140.376 10.9424C133.62 3.54641 124.252 0 112.693 0C101.168 0 91.8196 3.54859 85.0653 10.9424C78.3442 18.2998 75.1764 28.4092 75.1764 40.8587C75.1764 53.9446 78.3457 64.5813 85.0631 72.3798ZM146.008 53.7137C145.337 56.8494 144.397 59.7464 143.188 62.4047C140.47 68.4176 136.523 73.02 131.347 76.212C126.172 79.404 120.009 81 112.86 81C101.951 81 93.4426 77.4739 87.3361 70.4218C81.2297 63.3326 78.1764 53.4782 78.1764 40.8587C78.1764 28.9072 81.2111 19.6096 87.2803 12.9657C93.3495 6.32191 101.82 3 112.693 3C123.603 3 132.092 6.32191 138.161 12.9657C144.23 19.6096 147.265 28.9072 147.265 40.8587C147.265 45.4634 146.856 49.7046 146.036 53.5822L127.945 42L146.287 30.2574L125.091 32.4626L133.572 11.2574L117.681 26.5084C117.645 26.4549 117.61 26.4025 117.574 26.3512L113 4L108.596 25.5213C108.507 25.6011 108.42 25.6843 108.336 25.7709C108.21 25.8966 108.088 26.0309 107.971 26.1736L92.4275 11.2574L100.909 32.4626L79.713 30.2574L98.055 42L79.713 53.7426L100.909 51.5374L92.4275 72.7426L107.823 57.9677C107.952 58.1419 108.086 58.3033 108.225 58.4518C108.368 58.5999 108.519 58.7382 108.675 58.8666L113 80L117.534 57.8414C117.602 57.7444 117.667 57.6441 117.731 57.5404L133.572 72.7426L125.091 51.5374L146.008 53.7137ZM220.024 63.4068V60.4068H217.024H213.266V59.1135H223H226V56.1135V41.7495V38.7231L222.974 38.7496L213.266 38.8345V4.83726V1.83726H210.266L185.803 1.83726H184.412L183.513 2.89899L152.739 39.2545L152.028 40.0935V41.1927V56.1135V59.1135H155.028H181.742V60.4068H177.704H174.704V63.4068V79.4968V82.4968H177.704H217.024H220.024V79.4968V63.4068ZM210.266 56.1135V59.1135V60.4068V63.4068H213.266H214.024H217.024V66.4068V76.4968V79.4968H214.024H180.704H177.704V76.4968V66.4068V63.4068H180.704H181.742H184.742V60.4068V59.1135V56.1135H181.742H158.028H155.028V53.1135V41.1927L185.803 4.83726L207.266 4.83726H210.266V7.83726V38.8607V41.8608L213.266 41.8346L220 41.7757L223 41.7495V44.7496V53.1135V56.1135H220H213.266H210.266ZM22.213 41.7495L24.6413 38.7495L29.7131 32.4836L32.7131 28.7773V33.5456V38.7495V41.7495H29.7131H26.0726H22.213ZM29.7131 38.7495H28.5009L29.7131 37.2519V38.7495ZM174.241 41.7495L176.67 38.7495L181.742 32.4836L184.742 28.7773V33.5456V38.7495V41.7495H181.742H178.101H174.241ZM181.742 38.7495H180.529L181.742 37.2519V38.7495Z" fill="#D98C72"/>
</svg>
