<svg width="12" height="13" viewBox="0 0 12 13" fill="none" xmlns="http://www.w3.org/2000/svg">
<path d="M5.99975 0.5C2.68648 0.5 0 3.18648 0 6.49975C0 9.81302 2.68648 12.5 5.99975 12.5C9.31302 12.5 12 9.81302 12 6.49975C12 3.18648 9.31302 0.5 5.99975 0.5ZM7.24876 9.79879C6.93994 9.9207 6.6941 10.0131 6.50971 10.0771C6.32584 10.1411 6.112 10.1731 5.8687 10.1731C5.49486 10.1731 5.20381 10.0817 4.99657 9.89937C4.78933 9.71702 4.68622 9.48591 4.68622 9.20502C4.68622 9.09581 4.69384 8.98406 4.70908 8.87029C4.72483 8.75651 4.74971 8.62851 4.78375 8.48476L5.17029 7.11943C5.20432 6.98838 5.23378 6.86394 5.25714 6.74813C5.28051 6.6313 5.29168 6.52413 5.29168 6.4266C5.29168 6.25289 5.25562 6.13098 5.184 6.06241C5.11137 5.99384 4.97473 5.96032 4.77105 5.96032C4.67149 5.96032 4.56889 5.97505 4.46375 6.00603C4.35962 6.03803 4.26921 6.06698 4.19505 6.09543L4.29714 5.67486C4.5501 5.57175 4.79238 5.48337 5.02349 5.41022C5.2546 5.33606 5.47302 5.29949 5.67873 5.29949C6.05003 5.29949 6.33651 5.3899 6.53816 5.5687C6.73879 5.748 6.83987 5.98114 6.83987 6.26762C6.83987 6.32705 6.83276 6.43168 6.81905 6.58102C6.80533 6.73086 6.77943 6.86749 6.74184 6.99295L6.35733 8.35422C6.32584 8.46343 6.2979 8.58838 6.27251 8.72806C6.24762 8.86775 6.23543 8.97441 6.23543 9.04603C6.23543 9.22686 6.27556 9.35029 6.35683 9.41581C6.43708 9.48133 6.57778 9.51435 6.77689 9.51435C6.87086 9.51435 6.976 9.49759 7.09486 9.46508C7.2127 9.43257 7.29803 9.40362 7.35187 9.37873L7.24876 9.79879ZM7.1807 4.27346C7.0014 4.44006 6.78552 4.52337 6.53308 4.52337C6.28114 4.52337 6.06375 4.44006 5.88292 4.27346C5.70311 4.10686 5.61219 3.90419 5.61219 3.66749C5.61219 3.4313 5.70362 3.22813 5.88292 3.06C6.06375 2.89137 6.28114 2.80756 6.53308 2.80756C6.78552 2.80756 7.00191 2.89137 7.1807 3.06C7.36 3.22813 7.4499 3.4313 7.4499 3.66749C7.4499 3.9047 7.36 4.10686 7.1807 4.27346Z" fill="white"/>
</svg>
