<svg width="13" height="13" viewBox="0 0 13 13" fill="none" xmlns="http://www.w3.org/2000/svg">
<g id="plus (1) 1">
<path id="Vector" d="M10.4129 5.56827H7.43161V2.58694C7.43161 2.07127 7.01561 1.65527 6.49994 1.65527C5.98427 1.65527 5.56827 2.07127 5.56827 2.58694V5.56827H2.58694C2.07127 5.56827 1.65527 5.98427 1.65527 6.49994C1.65527 7.01561 2.07127 7.43161 2.58694 7.43161H5.56827V10.4129C5.56827 10.9286 5.98427 11.3446 6.49994 11.3446C7.01561 11.3446 7.43161 10.9286 7.43161 10.4129V7.43161H10.4129C10.9286 7.43161 11.3446 7.01561 11.3446 6.49994C11.3446 5.98427 10.9286 5.56827 10.4129 5.56827Z" fill="#212121"/>
</g>
</svg>
