<svg width="18" height="18" viewBox="0 0 18 18" fill="none" xmlns="http://www.w3.org/2000/svg">
<g clip-path="url(#clip0_328_13067)">
<path d="M16.5 2.99999H15H12.75V0.749988C12.75 0.335988 12.4147 0 12 0H5.99999C5.58525 0 5.25 0.335988 5.25 0.749988V2.99999H3H1.49999C1.08525 2.99999 0.75 3.33598 0.75 3.74998C0.75 4.16398 1.08521 4.5 1.49999 4.5H2.24998V15.75C2.24998 16.9905 3.25949 18 4.49998 18H13.5C14.7405 18 15.75 16.9905 15.75 15.75V4.5H16.5C16.9147 4.5 17.25 4.16401 17.25 3.75001C17.25 3.33601 16.9147 2.99999 16.5 2.99999ZM6.74998 1.50001H11.25V3.00002H6.74998V1.50001ZM14.25 15.75C14.25 16.1633 13.914 16.5 13.5 16.5H4.49998C4.08598 16.5 3.74999 16.1632 3.74999 15.75V4.5H5.99999H12H14.25L14.25 15.75Z" fill="#212121"/>
<path d="M6.74999 6C6.33525 6 6 6.33599 6 6.74999V13.5C6 13.914 6.33525 14.25 6.74999 14.25C7.16473 14.25 7.49998 13.914 7.49998 13.5V6.74999C7.49998 6.33599 7.16473 6 6.74999 6Z" fill="#212121"/>
<path d="M11.25 6C10.8353 6 10.5 6.33599 10.5 6.74999V13.5C10.5 13.914 10.8353 14.25 11.25 14.25C11.6647 14.25 12 13.914 12 13.5V6.74999C12 6.33599 11.6647 6 11.25 6Z" fill="#212121"/>
</g>
<defs>
<clipPath id="clip0_328_13067">
<rect width="18" height="18" fill="white"/>
</clipPath>
</defs>
</svg>
