<svg width="92" height="30" viewBox="0 0 92 30" fill="none" xmlns="http://www.w3.org/2000/svg">
<g id="Visa_Inc._logo 1" clip-path="url(#clip0_1514_12180)">
<g id="g4158">
<path id="polygon9" d="M39.8666 29.5672H32.4139L37.0754 0.526398H44.5276L39.8666 29.5672Z" fill="#00579F"/>
<path id="path11" d="M66.8831 1.23635C65.4131 0.648752 63.0816 -3.05176e-05 60.1986 -3.05176e-05C52.8389 -3.05176e-05 47.6563 3.95426 47.6245 9.60769C47.5633 13.7788 51.3351 16.0955 54.1561 17.4863C57.0394 18.9074 58.0195 19.835 58.0195 21.1018C57.9902 23.0473 55.6896 23.9441 53.5439 23.9441C50.5685 23.9441 48.9742 23.4818 46.5514 22.3994L45.5701 21.9354L44.5272 28.4544C46.2751 29.2568 49.4955 29.9688 52.8389 30C60.6587 30 65.7497 26.1069 65.81 20.0822C65.8398 16.7763 63.8481 14.2432 59.5543 12.1733C56.9477 10.8445 55.3514 9.94851 55.3514 8.58894C55.3819 7.35297 56.7016 6.08702 59.644 6.08702C62.0668 6.02502 63.8469 6.6118 65.1955 7.19899L65.8695 7.50736L66.8831 1.23635Z" fill="#00579F"/>
<path id="path13" d="M76.7883 19.2791C77.402 17.6107 79.7637 11.1537 79.7637 11.1537C79.7327 11.2157 80.3762 9.45454 80.7443 8.37337L81.2651 10.8757C81.2651 10.8757 82.6764 17.8271 82.9829 19.2791C81.8181 19.2791 78.2603 19.2791 76.7883 19.2791ZM85.9876 0.526398H80.223C78.4453 0.526398 77.0947 1.05117 76.3278 2.93592L65.2578 29.5668H73.0776C73.0776 29.5668 74.3651 25.9825 74.6418 25.2105C75.4996 25.2105 83.1067 25.2105 84.2104 25.2105C84.4243 26.2301 85.0996 29.5668 85.0996 29.5668H92L85.9876 0.526398Z" fill="#00579F"/>
<path id="path15" d="M26.1892 0.526398L18.8906 20.3294L18.0931 16.3132C16.7437 11.6789 12.5118 6.64384 7.78928 4.14028L14.4745 29.5364H22.3555L34.0698 0.526398H26.1892Z" fill="#00579F"/>
<path id="path17" d="M12.1132 0.526398H0.122668L0 1.11318C9.3534 3.52311 15.548 9.33217 18.093 16.3144L15.4864 2.96754C15.0573 1.11277 13.7385 0.58758 12.1132 0.526398Z" fill="#FAA61A"/>
</g>
</g>
<defs>
<clipPath id="clip0_1514_12180">
<rect width="92" height="30" fill="white"/>
</clipPath>
</defs>
</svg>
